M48
;GenerationSoftware,Autodesk,EAGLE,9.0.1*%
;CreationDate,2018-06-01T15:47:51Z*%
FMAT,2
ICI,OFF
METRIC,TZ,000.000
T10C0.350
T9C0.813
T8C0.890
T7C0.965
T6C1.000
T5C1.016
T4C1.600
T3C2.010
T2C2.997
T1C3.264
%
G90
M71
T1
X3175Y92075
X3175Y3175
X403225Y74930
X403225Y3175
T2
X33020Y80280
X33020Y86280
X37720Y83280
T3
X337820Y7620
X322580Y17780
X312420Y7620
X297180Y17780
X287020Y7620
X271780Y17780
X261620Y7620
X83820Y7620
X119380Y68580
X220980Y14605
X210820Y4445
X220980Y40005
X210820Y29845
X220980Y65405
X210820Y55245
X185420Y80645
X210820Y80645
X398780Y68580
X388620Y58420
X373380Y68580
X363220Y58420
X347980Y68580
X337820Y58420
X322580Y68580
X312420Y58420
X297180Y68580
X287020Y58420
X271780Y68580
X261620Y58420
X398780Y17780
X398780Y90805
X388620Y80645
X109220Y58420
X93980Y17780
X109220Y7620
X93980Y68580
X83820Y58420
X119380Y17780
X220980Y90805
X134620Y7620
X17780Y68580
X68580Y68580
X58420Y58420
X144780Y17780
X43180Y68580
X33020Y58420
X7620Y58420
X144780Y68580
X134620Y58420
X195580Y90805
X68580Y17780
X58420Y7620
X185420Y55245
X195580Y65405
X33020Y7620
X43180Y17780
X185420Y29845
X195580Y40005
X7620Y7620
X17780Y17780
X185420Y4445
X195580Y14605
X347980Y17780
X363220Y7620
X373380Y17780
X388620Y7620
T4
X78740Y81661
X78740Y86360
X55245Y91059
X55245Y81661
X55245Y86360
X78740Y91059
X327660Y86360
X327660Y81661
X327660Y91059
X350520Y86360
X350520Y81661
X350520Y91059
T5
X158750Y85725
X161290Y88265
X161290Y85725
X163830Y88265
X163830Y85725
X166370Y88265
X173990Y85725
X68580Y90805
X66040Y90805
X168910Y88265
X168910Y85725
X171450Y88265
X171450Y85725
X173990Y88265
X91440Y90805
X116840Y90170
X88900Y90805
X166370Y85725
X361315Y90805
X363855Y90805
X338455Y90805
X340995Y90805
X250190Y85725
X250190Y88265
X247650Y85725
X247650Y88265
X245110Y85725
X245110Y88265
X242570Y85725
X242570Y88265
X240030Y85725
X240030Y88265
X237490Y85725
X237490Y88265
X234950Y85725
X234950Y88265
X232410Y85725
X232410Y88265
X114300Y90170
X156210Y88265
X124460Y90170
X121920Y90170
X156210Y85725
X158750Y88265
X289560Y90170
X292100Y90170
X281940Y90170
X284480Y90170
X177165Y59690
X177165Y57150
X229235Y59690
X229235Y57150
T6
X48895Y81915
X48895Y76835
X258445Y88265
X147955Y88265
X258445Y90805
X381000Y83820
X147955Y90805
X207010Y73025
X203200Y73025
X199390Y73025
X43815Y81915
X373380Y83820
X43815Y76835
X375920Y83820
X378460Y83820
T7
X172720Y15875
X157480Y10795
X172720Y13335
X172720Y10795
X157480Y8255
X172720Y8255
X157480Y43815
X172720Y43815
X157480Y46355
X157480Y48895
X157480Y51435
X157480Y53975
X157480Y56515
X157480Y59055
X157480Y61595
X157480Y64135
X157480Y66675
X172720Y66675
X172720Y64135
X172720Y61595
X172720Y59055
X172720Y56515
X172720Y53975
X172720Y51435
X172720Y48895
X172720Y46355
X160020Y53975
X165100Y53975
X167640Y53975
X162560Y53975
X170180Y53975
X170180Y10795
X170180Y15875
X170180Y18415
X170180Y20955
X160655Y14605
X160655Y17145
X160655Y19685
X160655Y22225
X160655Y24765
X236855Y24765
X236855Y19685
X236855Y17145
X236855Y14605
X246380Y20955
X246380Y18415
X246380Y15875
X246380Y10795
X246380Y53975
X238760Y53975
X243840Y53975
X241300Y53975
X236220Y53975
X248920Y46355
X248920Y48895
X248920Y51435
X248920Y53975
X248920Y56515
X248920Y59055
X248920Y61595
X248920Y64135
X248920Y66675
X233680Y66675
X233680Y64135
X233680Y61595
X233680Y59055
X157480Y13335
X233680Y56515
X233680Y53975
X233680Y51435
X233680Y48895
X233680Y46355
X248920Y43815
X233680Y43815
X248920Y8255
X233680Y8255
X248920Y10795
X248920Y13335
X233680Y10795
X248920Y15875
X248920Y18415
X248920Y20955
X248920Y23495
X248920Y26035
X248920Y28575
X248920Y31115
X248920Y33655
X248920Y36195
X248920Y38735
X157480Y33655
X248920Y41275
X233680Y41275
X233680Y38735
X233680Y36195
X233680Y33655
X233680Y31115
X233680Y28575
X233680Y26035
X233680Y23495
X233680Y20955
X233680Y18415
X233680Y15875
X233680Y13335
X157480Y15875
X157480Y18415
X157480Y20955
X157480Y23495
X157480Y26035
X157480Y28575
X157480Y31115
X236855Y22225
X157480Y36195
X157480Y38735
X157480Y41275
X172720Y41275
X172720Y38735
X172720Y36195
X172720Y33655
X172720Y31115
X172720Y28575
X172720Y26035
X172720Y23495
X172720Y20955
X172720Y18415
T8
X314960Y63500
X342900Y63500
X340360Y63500
X368300Y63500
X365760Y63500
X393700Y63500
X391160Y63500
X215900Y85725
X213360Y85725
X215900Y60325
X213360Y60325
X215900Y34925
X213360Y34925
X215900Y9525
X213360Y9525
X266700Y12700
X264160Y12700
X292100Y12700
X289560Y12700
X317500Y12700
X314960Y12700
X342900Y12700
X340360Y12700
X12700Y63500
X368300Y12700
X365760Y12700
X10160Y63500
X38100Y63500
X393700Y12700
X391160Y12700
X35560Y63500
X63500Y63500
X60960Y63500
X88900Y63500
X86360Y63500
X114300Y63500
X111760Y63500
X139700Y63500
X137160Y63500
X190500Y85725
X187960Y85725
X190500Y60325
X187960Y60325
X190500Y34925
X187960Y34925
X190500Y9525
X187960Y9525
X12700Y12700
X10160Y12700
X38100Y12700
X35560Y12700
X63500Y12700
X60960Y12700
X88900Y12700
X86360Y12700
X114300Y12700
X111760Y12700
X139700Y12700
X137160Y12700
X393700Y85725
X391160Y85725
X266700Y63500
X264160Y63500
X292100Y63500
X289560Y63500
X317500Y63500
T9
X25400Y74930
X25400Y72390
X290830Y50800
X87630Y25400
X17780Y74930
X17780Y72390
X90170Y25400
X265430Y50800
X138430Y50800
X140970Y50800
X115570Y50800
X113030Y25400
X11430Y25400
X13970Y25400
X115570Y25400
X113030Y50800
X36830Y25400
X39370Y25400
X267970Y50800
X140970Y25400
X64770Y25400
X62230Y25400
X293370Y50800
X138430Y25400
X318770Y50800
X316230Y50800
X341630Y50800
X344170Y50800
X367030Y50800
X369570Y50800
X394970Y50800
X392430Y50800
X90170Y50800
X87630Y50800
X62230Y50800
X64770Y50800
X39370Y50800
X36830Y50800
X13970Y50800
X11430Y50800
X265430Y25400
X267970Y25400
X290830Y25400
X293370Y25400
X318770Y25400
X316230Y25400
X341630Y25400
X344170Y25400
X367030Y25400
X369570Y25400
X394970Y25400
X392430Y25400
X260985Y83185
X13970Y91440
X13970Y88900
X137160Y87630
X137160Y90170
X101600Y87630
X101600Y90170
X304800Y87630
X304800Y90170
X269240Y87630
X269240Y90170
X145415Y88265
X145415Y90805
X145415Y85725
X145415Y83185
X260985Y88265
X260985Y90805
X260985Y85725
T10
X35560Y31115
X183515Y73025
X149860Y49530
X113030Y43180
X110490Y43815
X41275Y46355
X43815Y43815
X62865Y40640
X34290Y43815
X22860Y50800
X127000Y61595
X85090Y72390
X153670Y52070
X151130Y56515
X128905Y25400
X118110Y30480
X102870Y25400
X50863Y28511
X40640Y28575
X22860Y25400
X276860Y50800
X282067Y85090
X253365Y55245
X253365Y74295
X291846Y80010
X291846Y85090
X288290Y31115
X257175Y18415
X253365Y18415
X287020Y25400
X294640Y31115
X179705Y74930
X226695Y74930
X347345Y31750
X363855Y22225
X128905Y50800
X116205Y46990
X372110Y32385
X274320Y43815
X99060Y50800
X55880Y47625
X284480Y51435
X293370Y43180
X38100Y45720
X369570Y43180
X149225Y45085
X107315Y68580
X107315Y79375
X129540Y75565
X116840Y71120
X121920Y71120
X127254Y85090
X107315Y46990
X343535Y40005
X339725Y40005
X323850Y40005
X362267Y51752
X279400Y86995
X281940Y86868
X382905Y25400
X372110Y30480
X353695Y25400
X304864Y28511
X294640Y28575
X276860Y25400
X29845Y48260
X382905Y50800
X255905Y52705
X256540Y46990
X254635Y51435
X147955Y76835
X151765Y72390
X145415Y76835
X150495Y71120
X274955Y70485
X359410Y40640
X370205Y46990
X353060Y50800
X274955Y79375
X295910Y75565
X309880Y47625
X292100Y45720
X111760Y86995
X114300Y86868
X284480Y70485
X289560Y70485
X294894Y85090
X361315Y23495
X257810Y48260
X251460Y45085
X268605Y56515
X273685Y56515
X252095Y47625
X268605Y59690
X273685Y59690
X236855Y90805
X248285Y90805
X158115Y90805
X169545Y90805
X252095Y55245
X252095Y75946
X277114Y75946
X282194Y77790
X153670Y55245
X114554Y77790
X114427Y85090
X124206Y80010
X124206Y85090
X111760Y31750
X49530Y35560
X215900Y73025
M30