G04 EAGLE Gerber X2 export*
%TF.Part,Single*%
%TF.FileFunction,Paste,Bot*%
%TF.FilePolarity,Positive*%
%TF.GenerationSoftware,Autodesk,EAGLE,9.0.1*%
%TF.CreationDate,2018-06-01T15:48:08Z*%
G75*
%MOMM*%
%FSLAX34Y34*%
%LPD*%
%AMOC8*
5,1,8,0,0,1.08239X$1,22.5*%
G01*
%ADD10R,0.660400X2.032000*%
%ADD11R,1.500000X1.300000*%
%ADD12R,1.219200X2.235200*%
%ADD13R,3.600000X2.200000*%
%ADD14R,2.235200X1.219200*%
%ADD15R,2.200000X3.600000*%
%ADD16R,1.600000X2.000000*%
%ADD17R,2.400000X2.400000*%
%ADD18R,2.200000X0.600000*%
%ADD19R,1.600000X1.300000*%
%ADD20R,1.300000X1.600000*%
%ADD21R,1.600200X1.168400*%
%ADD22R,1.400000X1.800000*%
%ADD23R,1.270000X2.540000*%


D10*
X342900Y411734D03*
X342900Y350266D03*
X355600Y411734D03*
X368300Y411734D03*
X355600Y350266D03*
X368300Y350266D03*
X381000Y411734D03*
X381000Y350266D03*
X393700Y411734D03*
X406400Y411734D03*
X393700Y350266D03*
X406400Y350266D03*
X419100Y411734D03*
X419100Y350266D03*
D11*
X139700Y835000D03*
X139700Y816000D03*
D12*
X239014Y800862D03*
X215900Y800862D03*
X192786Y800862D03*
D13*
X215900Y862840D03*
D10*
X1104900Y411734D03*
X1104900Y350266D03*
X1117600Y411734D03*
X1130300Y411734D03*
X1117600Y350266D03*
X1130300Y350266D03*
X1143000Y411734D03*
X1143000Y350266D03*
X1155700Y411734D03*
X1168400Y411734D03*
X1155700Y350266D03*
X1168400Y350266D03*
X1181100Y411734D03*
X1181100Y350266D03*
D14*
X858012Y751586D03*
X858012Y774700D03*
X858012Y797814D03*
D15*
X919990Y774700D03*
D16*
X979200Y723900D03*
X951200Y723900D03*
D17*
X886050Y850900D03*
X930050Y850900D03*
D16*
X777210Y762000D03*
X805210Y762000D03*
D14*
X629412Y751586D03*
X629412Y774700D03*
X629412Y797814D03*
D15*
X691390Y774700D03*
D16*
X750600Y723900D03*
X722600Y723900D03*
D17*
X657450Y850900D03*
X701450Y850900D03*
D16*
X554960Y749300D03*
X582960Y749300D03*
D18*
X1219800Y850900D03*
X1167800Y850900D03*
X1219800Y863600D03*
X1219800Y838200D03*
X1219800Y825500D03*
X1167800Y863600D03*
X1167800Y838200D03*
X1167800Y825500D03*
X1219800Y800100D03*
X1167800Y800100D03*
X1219800Y812800D03*
X1219800Y787400D03*
X1167800Y812800D03*
X1167800Y787400D03*
D19*
X1257300Y777900D03*
X1257300Y796900D03*
X1289050Y796900D03*
X1289050Y777900D03*
X1257300Y733450D03*
X1257300Y752450D03*
X1219200Y752450D03*
X1219200Y733450D03*
D20*
X1260500Y825500D03*
X1279500Y825500D03*
D19*
X1126490Y796900D03*
X1126490Y777900D03*
X1094740Y777900D03*
X1094740Y796900D03*
X1136650Y733450D03*
X1136650Y752450D03*
X1168400Y752450D03*
X1168400Y733450D03*
D20*
X1132180Y825500D03*
X1113180Y825500D03*
D21*
X127000Y750570D03*
X127000Y735330D03*
D22*
X1301162Y901700D03*
X1327738Y901700D03*
X1086438Y901700D03*
X1059862Y901700D03*
D10*
X2882900Y411734D03*
X2882900Y350266D03*
X2895600Y411734D03*
X2908300Y411734D03*
X2895600Y350266D03*
X2908300Y350266D03*
X2921000Y411734D03*
X2921000Y350266D03*
X2933700Y411734D03*
X2946400Y411734D03*
X2933700Y350266D03*
X2946400Y350266D03*
X2959100Y411734D03*
X2959100Y350266D03*
X3644900Y411734D03*
X3644900Y350266D03*
X3657600Y411734D03*
X3670300Y411734D03*
X3657600Y350266D03*
X3670300Y350266D03*
X3683000Y411734D03*
X3683000Y350266D03*
X3695700Y411734D03*
X3708400Y411734D03*
X3695700Y350266D03*
X3708400Y350266D03*
X3721100Y411734D03*
X3721100Y350266D03*
D14*
X3582162Y751586D03*
X3582162Y774700D03*
X3582162Y797814D03*
D15*
X3644140Y774700D03*
D16*
X3529300Y717550D03*
X3557300Y717550D03*
D17*
X3610200Y850900D03*
X3654200Y850900D03*
D16*
X3488660Y762000D03*
X3516660Y762000D03*
D14*
X3353562Y751586D03*
X3353562Y774700D03*
X3353562Y797814D03*
D15*
X3415540Y774700D03*
D16*
X3300700Y717550D03*
X3328700Y717550D03*
D17*
X3381600Y850900D03*
X3425600Y850900D03*
D16*
X3260060Y762000D03*
X3288060Y762000D03*
D18*
X2896200Y850900D03*
X2844200Y850900D03*
X2896200Y863600D03*
X2896200Y838200D03*
X2896200Y825500D03*
X2844200Y863600D03*
X2844200Y838200D03*
X2844200Y825500D03*
X2896200Y800100D03*
X2844200Y800100D03*
X2896200Y812800D03*
X2896200Y787400D03*
X2844200Y812800D03*
X2844200Y787400D03*
D19*
X2933700Y777900D03*
X2933700Y796900D03*
X2965450Y796900D03*
X2965450Y777900D03*
X2933700Y733450D03*
X2933700Y752450D03*
X2895600Y752450D03*
X2895600Y733450D03*
D20*
X2936900Y825500D03*
X2955900Y825500D03*
D19*
X2802890Y796900D03*
X2802890Y777900D03*
X2771140Y777900D03*
X2771140Y796900D03*
X2813050Y733450D03*
X2813050Y752450D03*
X2844800Y752450D03*
X2844800Y733450D03*
D20*
X2808580Y825500D03*
X2789580Y825500D03*
D22*
X2977562Y901700D03*
X3004138Y901700D03*
X2762838Y901700D03*
X2736262Y901700D03*
D23*
X2044700Y44450D03*
X2019300Y44450D03*
D21*
X1771650Y110490D03*
X1771650Y95250D03*
X1771650Y80010D03*
X2533650Y110490D03*
X2533650Y95250D03*
X2533650Y80010D03*
M02*
