G04 EAGLE Gerber X2 export*
%TF.Part,Single*%
%TF.FileFunction,Soldermask,Top,1*%
%TF.FilePolarity,Negative*%
%TF.GenerationSoftware,Autodesk,EAGLE,9.0.1*%
%TF.CreationDate,2018-06-01T15:48:08Z*%
G75*
%MOMM*%
%FSLAX34Y34*%
%LPD*%
%AMOC8*
5,1,8,0,0,1.08239X$1,22.5*%
G01*
%ADD10C,3.467100*%
%ADD11C,1.676400*%
%ADD12C,1.601200*%
%ADD13C,3.218200*%
%ADD14P,2.034460X8X22.500000*%
%ADD15P,2.034460X8X202.500000*%
%ADD16P,1.951982X8X292.500000*%
%ADD17C,1.803400*%
%ADD18C,4.521200*%
%ADD19P,2.034460X8X112.500000*%
%ADD20C,1.727200*%
%ADD21R,1.503200X1.803200*%
%ADD22R,1.803200X1.503200*%
%ADD23R,1.727200X1.727200*%
%ADD24P,1.869504X8X112.500000*%
%ADD25C,2.603200*%
%ADD26P,2.144431X8X202.500000*%
%ADD27R,1.981200X1.981200*%
%ADD28C,1.703200*%
%ADD29C,0.959600*%
%ADD30R,1.703200X1.703200*%
%ADD31P,1.038661X8X22.500000*%
%ADD32P,1.843527X8X22.500000*%


D10*
X31750Y31750D03*
X31750Y920750D03*
X4032250Y31750D03*
X4032250Y749300D03*
D11*
X1574800Y133350D03*
X1574800Y158750D03*
X1574800Y184150D03*
X1574800Y209550D03*
X1574800Y234950D03*
X1574800Y260350D03*
X1574800Y285750D03*
X1574800Y311150D03*
X1574800Y336550D03*
X1574800Y361950D03*
X1574800Y387350D03*
X1574800Y412750D03*
X1727200Y412750D03*
X1727200Y387350D03*
X1727200Y361950D03*
X1727200Y336550D03*
X1727200Y311150D03*
X1727200Y285750D03*
X1727200Y260350D03*
X1727200Y234950D03*
X1727200Y209550D03*
X1727200Y184150D03*
X1727200Y158750D03*
X1574800Y107950D03*
X1727200Y133350D03*
X1727200Y107950D03*
X1574800Y82550D03*
X1727200Y82550D03*
X1574800Y438150D03*
X1727200Y438150D03*
X1574800Y463550D03*
X1574800Y488950D03*
X1574800Y514350D03*
X1574800Y539750D03*
X1574800Y565150D03*
X1574800Y590550D03*
X1574800Y615950D03*
X1574800Y641350D03*
X1574800Y666750D03*
X1727200Y666750D03*
X1727200Y641350D03*
X1727200Y615950D03*
X1727200Y590550D03*
X1727200Y565150D03*
X1727200Y539750D03*
X1727200Y514350D03*
X1727200Y488950D03*
X1727200Y463550D03*
X1600200Y539750D03*
X1651000Y539750D03*
X1676400Y539750D03*
X1625600Y539750D03*
X1701800Y539750D03*
X1701800Y107950D03*
X1701800Y158750D03*
X1701800Y184150D03*
X1701800Y209550D03*
X1606550Y146050D03*
X1606550Y171450D03*
X1606550Y196850D03*
X1606550Y222250D03*
X1606550Y247650D03*
D12*
X127000Y635000D03*
X101600Y635000D03*
D13*
X76200Y584200D03*
X177800Y685800D03*
D12*
X381000Y635000D03*
X355600Y635000D03*
D13*
X330200Y584200D03*
X431800Y685800D03*
D12*
X635000Y635000D03*
X609600Y635000D03*
D13*
X584200Y584200D03*
X685800Y685800D03*
D12*
X889000Y635000D03*
X863600Y635000D03*
D13*
X838200Y584200D03*
X939800Y685800D03*
D12*
X1143000Y635000D03*
X1117600Y635000D03*
D13*
X1092200Y584200D03*
X1193800Y685800D03*
D12*
X1397000Y635000D03*
X1371600Y635000D03*
D13*
X1346200Y584200D03*
X1447800Y685800D03*
D12*
X1905000Y857250D03*
X1879600Y857250D03*
D13*
X1854200Y806450D03*
X1955800Y908050D03*
D12*
X1905000Y603250D03*
X1879600Y603250D03*
D13*
X1854200Y552450D03*
X1955800Y654050D03*
D12*
X1905000Y349250D03*
X1879600Y349250D03*
D13*
X1854200Y298450D03*
X1955800Y400050D03*
D12*
X1905000Y95250D03*
X1879600Y95250D03*
D13*
X1854200Y44450D03*
X1955800Y146050D03*
D14*
X114300Y508000D03*
X139700Y508000D03*
X368300Y508000D03*
X393700Y508000D03*
D15*
X647700Y508000D03*
X622300Y508000D03*
D14*
X876300Y508000D03*
X901700Y508000D03*
X1130300Y508000D03*
X1155700Y508000D03*
D15*
X1409700Y508000D03*
X1384300Y508000D03*
D16*
X254000Y723900D03*
D17*
X254000Y749300D03*
D16*
X177800Y723900D03*
D17*
X177800Y749300D03*
D18*
X330200Y802800D03*
X330200Y862800D03*
X377200Y832800D03*
D19*
X139700Y889000D03*
X139700Y914400D03*
D12*
X127000Y127000D03*
X101600Y127000D03*
D13*
X76200Y76200D03*
X177800Y177800D03*
D12*
X381000Y127000D03*
X355600Y127000D03*
D13*
X330200Y76200D03*
X431800Y177800D03*
D12*
X635000Y127000D03*
X609600Y127000D03*
D13*
X584200Y76200D03*
X685800Y177800D03*
D12*
X889000Y127000D03*
X863600Y127000D03*
D13*
X838200Y76200D03*
X939800Y177800D03*
D12*
X1143000Y127000D03*
X1117600Y127000D03*
D13*
X1092200Y76200D03*
X1193800Y177800D03*
D12*
X1397000Y127000D03*
X1371600Y127000D03*
D13*
X1346200Y76200D03*
X1447800Y177800D03*
D14*
X114300Y254000D03*
X139700Y254000D03*
X368300Y254000D03*
X393700Y254000D03*
D15*
X647700Y254000D03*
X622300Y254000D03*
D14*
X876300Y254000D03*
X901700Y254000D03*
X1130300Y254000D03*
X1155700Y254000D03*
D15*
X1409700Y254000D03*
X1384300Y254000D03*
D20*
X889000Y900430D02*
X889000Y915670D01*
X914400Y915670D02*
X914400Y900430D01*
X660400Y900430D02*
X660400Y915670D01*
X685800Y915670D02*
X685800Y900430D01*
D21*
X175260Y508000D03*
X205740Y508000D03*
D22*
X434340Y508000D03*
X434340Y477520D03*
X582930Y506730D03*
X582930Y476250D03*
D21*
X941070Y508000D03*
X971550Y508000D03*
D22*
X1193800Y506730D03*
X1193800Y476250D03*
D21*
X1342390Y508000D03*
X1311910Y508000D03*
X175260Y254000D03*
X205740Y254000D03*
D22*
X431800Y254000D03*
X431800Y284480D03*
X584200Y254000D03*
X584200Y284480D03*
D21*
X943610Y254000D03*
X974090Y254000D03*
D22*
X1196340Y252730D03*
X1196340Y283210D03*
D21*
X1342390Y254000D03*
X1311910Y254000D03*
D23*
X1739900Y857250D03*
D24*
X1739900Y882650D03*
X1714500Y857250D03*
X1714500Y882650D03*
X1689100Y857250D03*
X1689100Y882650D03*
X1663700Y857250D03*
X1663700Y882650D03*
X1638300Y857250D03*
X1638300Y882650D03*
X1612900Y857250D03*
X1612900Y882650D03*
X1587500Y857250D03*
X1587500Y882650D03*
X1562100Y857250D03*
X1562100Y882650D03*
D25*
X552450Y863600D03*
X552450Y816610D03*
X552450Y910590D03*
X787400Y863600D03*
X787400Y816610D03*
X787400Y910590D03*
D20*
X1219200Y909320D02*
X1219200Y894080D01*
X1244600Y894080D02*
X1244600Y909320D01*
X1143000Y909320D02*
X1143000Y894080D01*
X1168400Y894080D02*
X1168400Y909320D01*
D12*
X3937000Y857250D03*
X3911600Y857250D03*
D13*
X3886200Y806450D03*
X3987800Y908050D03*
D19*
X1371600Y876300D03*
X1371600Y901700D03*
X1016000Y876300D03*
X1016000Y901700D03*
D11*
X2336800Y133350D03*
X2336800Y158750D03*
X2336800Y184150D03*
X2336800Y209550D03*
X2336800Y234950D03*
X2336800Y260350D03*
X2336800Y285750D03*
X2336800Y311150D03*
X2336800Y336550D03*
X2336800Y361950D03*
X2336800Y387350D03*
X2336800Y412750D03*
X2489200Y412750D03*
X2489200Y387350D03*
X2489200Y361950D03*
X2489200Y336550D03*
X2489200Y311150D03*
X2489200Y285750D03*
X2489200Y260350D03*
X2489200Y234950D03*
X2489200Y209550D03*
X2489200Y184150D03*
X2489200Y158750D03*
X2336800Y107950D03*
X2489200Y133350D03*
X2489200Y107950D03*
X2336800Y82550D03*
X2489200Y82550D03*
X2336800Y438150D03*
X2489200Y438150D03*
X2336800Y463550D03*
X2336800Y488950D03*
X2336800Y514350D03*
X2336800Y539750D03*
X2336800Y565150D03*
X2336800Y590550D03*
X2336800Y615950D03*
X2336800Y641350D03*
X2336800Y666750D03*
X2489200Y666750D03*
X2489200Y641350D03*
X2489200Y615950D03*
X2489200Y590550D03*
X2489200Y565150D03*
X2489200Y539750D03*
X2489200Y514350D03*
X2489200Y488950D03*
X2489200Y463550D03*
X2362200Y539750D03*
X2413000Y539750D03*
X2438400Y539750D03*
X2387600Y539750D03*
X2463800Y539750D03*
X2463800Y107950D03*
X2463800Y158750D03*
X2463800Y184150D03*
X2463800Y209550D03*
X2368550Y146050D03*
X2368550Y171450D03*
X2368550Y196850D03*
X2368550Y222250D03*
X2368550Y247650D03*
D12*
X2667000Y635000D03*
X2641600Y635000D03*
D13*
X2616200Y584200D03*
X2717800Y685800D03*
D12*
X2921000Y635000D03*
X2895600Y635000D03*
D13*
X2870200Y584200D03*
X2971800Y685800D03*
D12*
X3175000Y635000D03*
X3149600Y635000D03*
D13*
X3124200Y584200D03*
X3225800Y685800D03*
D12*
X3429000Y635000D03*
X3403600Y635000D03*
D13*
X3378200Y584200D03*
X3479800Y685800D03*
D12*
X3683000Y635000D03*
X3657600Y635000D03*
D13*
X3632200Y584200D03*
X3733800Y685800D03*
D12*
X3937000Y635000D03*
X3911600Y635000D03*
D13*
X3886200Y584200D03*
X3987800Y685800D03*
D12*
X2159000Y857250D03*
X2133600Y857250D03*
D13*
X2108200Y806450D03*
X2209800Y908050D03*
D12*
X2159000Y603250D03*
X2133600Y603250D03*
D13*
X2108200Y552450D03*
X2209800Y654050D03*
D12*
X2159000Y349250D03*
X2133600Y349250D03*
D13*
X2108200Y298450D03*
X2209800Y400050D03*
D12*
X2159000Y95250D03*
X2133600Y95250D03*
D13*
X2108200Y44450D03*
X2209800Y146050D03*
D14*
X2654300Y508000D03*
X2679700Y508000D03*
X2908300Y508000D03*
X2933700Y508000D03*
D15*
X3187700Y508000D03*
X3162300Y508000D03*
D14*
X3416300Y508000D03*
X3441700Y508000D03*
X3670300Y508000D03*
X3695700Y508000D03*
D15*
X3949700Y508000D03*
X3924300Y508000D03*
D12*
X2667000Y127000D03*
X2641600Y127000D03*
D13*
X2616200Y76200D03*
X2717800Y177800D03*
D12*
X2921000Y127000D03*
X2895600Y127000D03*
D13*
X2870200Y76200D03*
X2971800Y177800D03*
D12*
X3175000Y127000D03*
X3149600Y127000D03*
D13*
X3124200Y76200D03*
X3225800Y177800D03*
D12*
X3429000Y127000D03*
X3403600Y127000D03*
D13*
X3378200Y76200D03*
X3479800Y177800D03*
D12*
X3683000Y127000D03*
X3657600Y127000D03*
D13*
X3632200Y76200D03*
X3733800Y177800D03*
D12*
X3937000Y127000D03*
X3911600Y127000D03*
D13*
X3886200Y76200D03*
X3987800Y177800D03*
D14*
X2654300Y254000D03*
X2679700Y254000D03*
X2908300Y254000D03*
X2933700Y254000D03*
D15*
X3187700Y254000D03*
X3162300Y254000D03*
D14*
X3416300Y254000D03*
X3441700Y254000D03*
X3670300Y254000D03*
X3695700Y254000D03*
D15*
X3949700Y254000D03*
X3924300Y254000D03*
D20*
X3613150Y900430D02*
X3613150Y915670D01*
X3638550Y915670D02*
X3638550Y900430D01*
X3384550Y900430D02*
X3384550Y915670D01*
X3409950Y915670D02*
X3409950Y900430D01*
D21*
X2715260Y508000D03*
X2745740Y508000D03*
D22*
X2974340Y508000D03*
X2974340Y477520D03*
X3122930Y506730D03*
X3122930Y476250D03*
D21*
X3481070Y508000D03*
X3511550Y508000D03*
D22*
X3733800Y506730D03*
X3733800Y476250D03*
D21*
X3882390Y508000D03*
X3851910Y508000D03*
X2715260Y254000D03*
X2745740Y254000D03*
D22*
X2971800Y254000D03*
X2971800Y284480D03*
X3124200Y254000D03*
X3124200Y284480D03*
D21*
X3483610Y254000D03*
X3514090Y254000D03*
D22*
X3736340Y252730D03*
X3736340Y283210D03*
D21*
X3882390Y254000D03*
X3851910Y254000D03*
D23*
X2501900Y857250D03*
D24*
X2501900Y882650D03*
X2476500Y857250D03*
X2476500Y882650D03*
X2451100Y857250D03*
X2451100Y882650D03*
X2425700Y857250D03*
X2425700Y882650D03*
X2400300Y857250D03*
X2400300Y882650D03*
X2374900Y857250D03*
X2374900Y882650D03*
X2349500Y857250D03*
X2349500Y882650D03*
X2324100Y857250D03*
X2324100Y882650D03*
D25*
X3276600Y863600D03*
X3276600Y816610D03*
X3276600Y910590D03*
X3505200Y863600D03*
X3505200Y816610D03*
X3505200Y910590D03*
D20*
X2895600Y909320D02*
X2895600Y894080D01*
X2921000Y894080D02*
X2921000Y909320D01*
X2819400Y909320D02*
X2819400Y894080D01*
X2844800Y894080D02*
X2844800Y909320D01*
D19*
X3048000Y876300D03*
X3048000Y901700D03*
X2692400Y876300D03*
X2692400Y901700D03*
D20*
X1779270Y596900D02*
X1764030Y596900D01*
X1764030Y571500D02*
X1779270Y571500D01*
X2284730Y596900D02*
X2299970Y596900D01*
X2299970Y571500D02*
X2284730Y571500D01*
D26*
X1454150Y882650D03*
D27*
X1454150Y908050D03*
D26*
X1454150Y857250D03*
X1454150Y831850D03*
X2609850Y882650D03*
D27*
X2609850Y908050D03*
D26*
X2609850Y857250D03*
X2609850Y831850D03*
D28*
X438150Y819150D03*
X488950Y819150D03*
X3784600Y838200D03*
X3759200Y838200D03*
D29*
X381000Y457200D03*
X558800Y476250D03*
X990600Y508000D03*
X1162050Y469900D03*
X1289050Y508000D03*
X2266950Y749300D03*
X1797050Y749300D03*
D28*
X438150Y768350D03*
X3733800Y838200D03*
D29*
X228600Y254000D03*
X406400Y285750D03*
X508635Y285115D03*
X1028700Y254000D03*
X1181100Y304800D03*
X1289050Y254000D03*
X1511300Y565150D03*
X1536700Y520700D03*
X850900Y723900D03*
X1270000Y615950D03*
X228600Y508000D03*
X342900Y438150D03*
X628650Y406400D03*
X438150Y438150D03*
X412750Y463550D03*
X1104900Y438150D03*
X1130300Y431800D03*
X1498600Y495300D03*
X1835150Y730250D03*
X355600Y311150D03*
X495300Y355600D03*
X1117600Y317500D03*
X1242060Y850900D03*
X1242060Y800100D03*
X1144270Y850900D03*
X1145540Y777900D03*
X1536700Y552450D03*
D28*
X1993900Y730250D03*
X2032000Y730250D03*
X2070100Y730250D03*
D30*
X1479550Y908050D03*
D29*
X1695450Y908050D03*
X1581150Y908050D03*
D30*
X2584450Y908050D03*
D31*
X2482850Y908050D03*
X2368550Y908050D03*
D29*
X1143000Y868680D03*
X1117600Y869950D03*
X2921000Y457200D03*
X3098800Y476250D03*
X3530600Y508000D03*
X3702050Y469900D03*
X3829050Y508000D03*
X2768600Y254000D03*
X2946400Y285750D03*
X3048635Y285115D03*
X3536950Y254000D03*
X3721100Y304800D03*
X3829050Y254000D03*
X2768600Y508000D03*
X2819400Y868680D03*
X2794000Y869950D03*
X3695700Y431800D03*
X3622675Y517525D03*
X3238500Y400050D03*
X3397250Y400050D03*
X3435350Y400050D03*
X2933700Y431800D03*
X2844800Y514350D03*
X2743200Y438150D03*
X3721100Y323850D03*
X3638550Y222250D03*
X3473450Y317500D03*
X2946400Y311150D03*
X2870200Y254000D03*
X2533650Y184150D03*
X2571750Y184150D03*
X2882900Y311150D03*
X2918460Y850900D03*
X2918460Y800100D03*
X2533650Y742950D03*
X2533650Y552450D03*
X2820670Y850900D03*
X2821940Y777900D03*
X2771140Y759460D03*
X2520950Y759460D03*
X2520950Y552450D03*
X2736850Y596900D03*
X2686050Y596900D03*
X2520950Y476250D03*
X2736850Y565150D03*
X2686050Y565150D03*
X2514600Y450850D03*
X2159000Y730250D03*
X3613150Y234950D03*
X2948940Y850900D03*
X2895600Y704850D03*
X2844800Y704850D03*
X2959100Y755650D03*
X2749550Y793750D03*
X3594100Y406400D03*
X2749550Y704850D03*
D28*
X3810000Y838200D03*
D29*
X1504950Y711200D03*
X1454150Y768350D03*
X1517650Y723900D03*
X1479550Y768350D03*
X2546350Y514350D03*
X2565400Y469900D03*
X2559050Y527050D03*
X2578100Y482600D03*
D32*
X1479550Y882650D03*
X2584450Y882650D03*
D28*
X488950Y768350D03*
D29*
X298450Y482600D03*
X1073150Y469900D03*
X1272540Y850900D03*
X1219200Y711200D03*
X1168400Y711200D03*
X1295400Y755650D03*
X1073150Y793750D03*
X1073150Y685800D03*
X1492250Y450850D03*
M02*
