M48
;GenerationSoftware,Autodesk,EAGLE,9.6.2*%
;CreationDate,2021-12-16T00:30:27Z*%
FMAT,2
ICI,OFF
METRIC,TZ,000.000
T10C0.350
T9C0.813
T8C0.890
T7C0.965
T6C1.000
T5C1.016
T4C1.300
T3C2.010
T2C2.997
T1C3.264
%
G90
M71
T1
X3175Y3175
X3175Y92075
X403225Y3175
X403225Y74930
T2
X31750Y80280
X31750Y86280
X36450Y83280
T3
X388620Y58420
X347980Y68580
X337820Y58420
X297180Y68580
X287020Y58420
X233680Y91440
X322580Y68580
X312420Y58420
X271780Y68580
X261620Y58420
X7620Y7620
X17780Y17780
X398780Y90805
X388620Y80645
X33020Y7620
X43180Y17780
X144780Y17780
X134620Y7620
X58420Y7620
X68580Y17780
X119380Y17780
X109220Y7620
X83820Y7620
X208280Y15240
X198120Y5080
X7620Y58420
X17780Y68580
X208280Y40640
X198120Y30480
X33020Y58420
X43180Y68580
X208280Y66040
X198120Y55880
X83820Y58420
X93980Y68580
X208280Y91440
X198120Y81280
X223520Y81280
X373380Y68580
X363220Y58420
X398780Y68580
X134620Y58420
X144780Y68580
X398780Y17780
X388620Y7620
X58420Y58420
X68580Y68580
X373380Y17780
X363220Y7620
X109220Y58420
X119380Y68580
X347980Y17780
X337820Y7620
X172720Y81280
X182880Y91440
X322580Y17780
X312420Y7620
X172720Y55880
X182880Y66040
X93980Y17780
X297180Y17780
X287020Y7620
X172720Y30480
X182880Y40640
X271780Y17780
X261620Y7620
X172720Y5080
X182880Y15240
X233680Y15240
X223520Y5080
X233680Y40640
X223520Y30480
X233680Y66040
X223520Y55880
T4
X55245Y92150
X342265Y83745
X342265Y90245
X76835Y85650
X76835Y92150
X362585Y83745
X362585Y90245
X55245Y85650
T5
X251460Y87630
X149860Y85090
X152400Y87630
X152400Y85090
X301625Y90805
X311785Y90805
X304165Y90805
X138430Y76835
X160020Y87630
X140970Y76835
X309245Y90805
X243840Y87630
X243840Y85090
X246380Y85090
X248920Y87630
X248920Y85090
X265430Y76835
X251460Y85090
X254000Y87630
X254000Y85090
X256540Y87630
X259080Y87630
X259080Y85090
X261620Y87630
X261620Y85090
X372110Y90170
X369570Y90170
X256540Y85090
X351790Y90170
X349250Y90170
X154940Y85090
X157480Y87630
X157480Y85090
X246380Y87630
X267970Y76835
X160020Y85090
X162560Y87630
X162560Y85090
X86995Y90805
X84455Y90805
X65405Y90805
X62865Y90805
X106045Y90170
X116205Y90170
X113665Y90170
X144780Y87630
X144780Y85090
X147320Y87630
X147320Y85090
X149860Y87630
X154940Y87630
X108585Y90170
T6
X46355Y81915
X383540Y91440
X381000Y91440
X233680Y76200
X173355Y76200
X378460Y91440
X41910Y76835
X41910Y81915
X215900Y73025
X190500Y66675
X190500Y69850
X190500Y73025
X215900Y66675
X215900Y69850
X386080Y91440
X46355Y76835
T7
X166370Y55880
X252730Y20320
X252730Y17780
X252730Y15240
X252730Y10160
X252730Y53340
X245110Y53340
X250190Y53340
X247650Y53340
X242570Y53340
X255270Y45720
X255270Y50800
X255270Y53340
X255270Y55880
X255270Y58420
X255270Y60960
X255270Y63500
X255270Y66040
X240030Y66040
X240030Y63500
X240030Y60960
X240030Y58420
X240030Y55880
X240030Y53340
X240030Y50800
X240030Y48260
X240030Y45720
X255270Y43180
X240030Y43180
X255270Y7620
X240030Y7620
X255270Y10160
X255270Y12700
X240030Y10160
X255270Y15240
X255270Y17780
X255270Y20320
X255270Y22860
X255270Y25400
X255270Y27940
X255270Y30480
X255270Y33020
X255270Y35560
X255270Y38100
X255270Y40640
X240030Y40640
X240030Y38100
X240030Y35560
X240030Y33020
X240030Y30480
X240030Y27940
X240030Y25400
X240030Y22860
X240030Y20320
X240030Y17780
X240030Y15240
X240030Y12700
X151130Y12700
X151130Y15240
X151130Y17780
X151130Y22860
X151130Y25400
X151130Y27940
X151130Y30480
X151130Y33020
X255270Y48260
X151130Y38100
X151130Y40640
X166370Y40640
X166370Y38100
X166370Y35560
X166370Y33020
X166370Y30480
X166370Y27940
X166370Y25400
X166370Y22860
X166370Y20320
X166370Y17780
X166370Y15240
X151130Y10160
X166370Y12700
X166370Y10160
X151130Y7620
X166370Y7620
X151130Y43180
X166370Y43180
X151130Y45720
X151130Y48260
X151130Y50800
X151130Y53340
X151130Y55880
X151130Y58420
X151130Y60960
X151130Y63500
X151130Y66040
X166370Y66040
X166370Y63500
X166370Y60960
X166370Y58420
X166370Y53340
X166370Y50800
X166370Y48260
X166370Y45720
X153670Y53340
X158750Y53340
X161290Y53340
X156210Y53340
X163830Y53340
X163830Y10160
X163830Y15240
X163830Y17780
X163830Y20320
X154305Y13970
X154305Y16510
X154305Y19050
X154305Y21590
X154305Y24130
X151130Y20320
X151130Y35560
X243205Y24130
X243205Y21590
X243205Y19050
X243205Y16510
X243205Y13970
T8
X264160Y63500
X10160Y12700
X12700Y12700
X317500Y63500
X314960Y63500
X292100Y63500
X289560Y63500
X342900Y63500
X340360Y63500
X393700Y63500
X391160Y63500
X368300Y63500
X365760Y63500
X228600Y86360
X226060Y86360
X226060Y60960
X228600Y35560
X226060Y35560
X114300Y63500
X393700Y12700
X391160Y12700
X60960Y63500
X63500Y63500
X393700Y85725
X228600Y10160
X226060Y10160
X266700Y12700
X264160Y12700
X175260Y10160
X177800Y10160
X292100Y12700
X289560Y12700
X175260Y35560
X177800Y35560
X317500Y12700
X314960Y12700
X175260Y60960
X177800Y60960
X342900Y12700
X340360Y12700
X63500Y12700
X175260Y86360
X177800Y86360
X368300Y12700
X365760Y12700
X111760Y63500
X391160Y85725
X35560Y12700
X38100Y12700
X228600Y60960
X266700Y63500
X203200Y86360
X200660Y86360
X137160Y63500
X139700Y63500
X203200Y60960
X200660Y60960
X86360Y63500
X88900Y63500
X203200Y35560
X200660Y35560
X35560Y63500
X38100Y63500
X203200Y10160
X200660Y10160
X10160Y63500
X12700Y63500
X114300Y12700
X111760Y12700
X86360Y12700
X88900Y12700
X139700Y12700
X137160Y12700
X60960Y12700
T9
X316230Y25400
X341630Y25400
X344170Y25400
X367030Y25400
X62230Y25400
X394970Y25400
X392430Y25400
X87630Y25400
X90170Y25400
X113030Y25400
X115570Y25400
X140970Y25400
X138430Y25400
X267970Y50800
X127000Y87630
X127000Y90170
X95250Y87630
X95250Y90170
X13970Y91440
X13970Y88900
X17780Y74930
X17780Y72390
X25400Y74930
X25400Y72390
X115570Y50800
X113030Y50800
X62230Y50800
X64770Y50800
X138430Y50800
X140970Y50800
X327025Y88265
X327025Y90805
X287020Y88265
X287020Y90805
X90170Y50800
X87630Y50800
X39370Y50800
X36830Y50800
X132715Y88265
X132715Y90805
X132715Y85725
X132715Y83185
X278130Y88900
X278130Y91440
X278130Y86360
X278130Y83820
X13970Y50800
X11430Y50800
X265430Y50800
X316230Y50800
X318770Y50800
X290830Y50800
X293370Y50800
X341630Y50800
X344170Y50800
X394970Y50800
X392430Y50800
X367030Y50800
X369570Y50800
X11430Y25400
X13970Y25400
X36830Y25400
X39370Y25400
X64770Y25400
X265430Y25400
X267970Y25400
X290830Y25400
X293370Y25400
X318770Y25400
X369570Y25400
T10
X155575Y90805
X169545Y90805
X226695Y44450
X224790Y46990
X185420Y48895
X183515Y50800
X193040Y69850
X102235Y73025
X97790Y80010
X115951Y80010
X115951Y85090
X177800Y79375
X177800Y73025
X36830Y43815
X33020Y43815
X22860Y50800
X135890Y43180
X97790Y69850
X113030Y43180
X109220Y43180
X133985Y30480
X118110Y30480
X102870Y25400
X50863Y28511
X40640Y28575
X22860Y25400
X118364Y47371
X38100Y45720
X121285Y75565
X108585Y71755
X113665Y71755
X118999Y85090
X107823Y50800
X29464Y47879
X278130Y68580
X262636Y53086
X261239Y50800
X280035Y68580
X137795Y83185
X147320Y73660
X132715Y80010
X139065Y72390
X294894Y74041
X306705Y73980
X313690Y85725
X359410Y41910
X294894Y80391
X361315Y23495
X230505Y72390
X332740Y47625
X362585Y41275
X250825Y38100
X296545Y53975
X286385Y42545
X259080Y49530
X257810Y52070
X293370Y45085
X299466Y66802
X301752Y78298
X301752Y85725
X276225Y68580
X311531Y80391
X276225Y76581
X311531Y85725
X363855Y22225
X372110Y32385
X361950Y50800
X367030Y43815
X369570Y43815
X299085Y87757
X301879Y87757
X267970Y69215
X290830Y43815
X368300Y45085
X287655Y46990
X382905Y25400
X375920Y44450
X288290Y31115
X372110Y30480
X353695Y25400
X258445Y19050
X287020Y25400
X304864Y28511
X294640Y28575
X294640Y31115
X347345Y31750
X287655Y27940
X353060Y50800
X296545Y43815
X292100Y43180
X102870Y86995
X106045Y86868
X106045Y44450
X114300Y45720
X115570Y44450
X106299Y77790
X46355Y47625
X108585Y29210
X106172Y85090
X124460Y40640
X68580Y34290
X41275Y32385
X67945Y40640
X39370Y43815
X38100Y31115
X35560Y31115
X240030Y90805
X143510Y40640
X248285Y90805
M30