G04 EAGLE Gerber RS-274X export*
G75*
%MOMM*%
%FSLAX34Y34*%
%LPD*%
%INSoldermask Top*%
%IPPOS*%
%AMOC8*
5,1,8,0,0,1.08239X$1,22.5*%
G01*
%ADD10C,3.467200*%
%ADD11C,1.676400*%
%ADD12C,1.601200*%
%ADD13C,3.218200*%
%ADD14P,2.034460X8X22.500000*%
%ADD15P,2.034460X8X202.500000*%
%ADD16P,1.951982X8X292.500000*%
%ADD17C,1.803400*%
%ADD18C,4.521200*%
%ADD19P,2.034460X8X112.500000*%
%ADD20C,1.727200*%
%ADD21R,1.503200X1.803200*%
%ADD22R,1.803200X1.503200*%
%ADD23R,1.727200X1.727200*%
%ADD24P,1.869504X8X112.500000*%
%ADD25P,2.144431X8X202.500000*%
%ADD26R,1.981200X1.981200*%
%ADD27C,2.743200*%
%ADD28C,1.703200*%
%ADD29C,0.959600*%
%ADD30P,1.038661X8X22.500000*%


D10*
X31750Y31750D03*
X31750Y920750D03*
X4032250Y31750D03*
X4032250Y749300D03*
D11*
X1511300Y127000D03*
X1511300Y152400D03*
X1511300Y177800D03*
X1511300Y203200D03*
X1511300Y228600D03*
X1511300Y254000D03*
X1511300Y279400D03*
X1511300Y304800D03*
X1511300Y330200D03*
X1511300Y355600D03*
X1511300Y381000D03*
X1511300Y406400D03*
X1663700Y406400D03*
X1663700Y381000D03*
X1663700Y355600D03*
X1663700Y330200D03*
X1663700Y304800D03*
X1663700Y279400D03*
X1663700Y254000D03*
X1663700Y228600D03*
X1663700Y203200D03*
X1663700Y177800D03*
X1663700Y152400D03*
X1511300Y101600D03*
X1663700Y127000D03*
X1663700Y101600D03*
X1511300Y76200D03*
X1663700Y76200D03*
X1511300Y431800D03*
X1663700Y431800D03*
X1511300Y457200D03*
X1511300Y482600D03*
X1511300Y508000D03*
X1511300Y533400D03*
X1511300Y558800D03*
X1511300Y584200D03*
X1511300Y609600D03*
X1511300Y635000D03*
X1511300Y660400D03*
X1663700Y660400D03*
X1663700Y635000D03*
X1663700Y609600D03*
X1663700Y584200D03*
X1663700Y558800D03*
X1663700Y533400D03*
X1663700Y508000D03*
X1663700Y482600D03*
X1663700Y457200D03*
X1536700Y533400D03*
X1587500Y533400D03*
X1612900Y533400D03*
X1562100Y533400D03*
X1638300Y533400D03*
X1638300Y101600D03*
X1638300Y152400D03*
X1638300Y177800D03*
X1638300Y203200D03*
X1543050Y139700D03*
X1543050Y165100D03*
X1543050Y190500D03*
X1543050Y215900D03*
X1543050Y241300D03*
D12*
X127000Y635000D03*
X101600Y635000D03*
D13*
X76200Y584200D03*
X177800Y685800D03*
D12*
X381000Y635000D03*
X355600Y635000D03*
D13*
X330200Y584200D03*
X431800Y685800D03*
D12*
X889000Y635000D03*
X863600Y635000D03*
D13*
X838200Y584200D03*
X939800Y685800D03*
D12*
X1397000Y635000D03*
X1371600Y635000D03*
D13*
X1346200Y584200D03*
X1447800Y685800D03*
D12*
X635000Y635000D03*
X609600Y635000D03*
D13*
X584200Y584200D03*
X685800Y685800D03*
D12*
X1143000Y635000D03*
X1117600Y635000D03*
D13*
X1092200Y584200D03*
X1193800Y685800D03*
D12*
X1778000Y863600D03*
X1752600Y863600D03*
D13*
X1727200Y812800D03*
X1828800Y914400D03*
D12*
X1778000Y609600D03*
X1752600Y609600D03*
D13*
X1727200Y558800D03*
X1828800Y660400D03*
D12*
X1778000Y355600D03*
X1752600Y355600D03*
D13*
X1727200Y304800D03*
X1828800Y406400D03*
D12*
X1778000Y101600D03*
X1752600Y101600D03*
D13*
X1727200Y50800D03*
X1828800Y152400D03*
D14*
X114300Y508000D03*
X139700Y508000D03*
X368300Y508000D03*
X393700Y508000D03*
X876300Y508000D03*
X901700Y508000D03*
D15*
X1409700Y508000D03*
X1384300Y508000D03*
X647700Y508000D03*
X622300Y508000D03*
D14*
X1130300Y508000D03*
X1155700Y508000D03*
D16*
X254000Y723900D03*
D17*
X254000Y749300D03*
D16*
X177800Y723900D03*
D17*
X177800Y749300D03*
D18*
X317500Y802800D03*
X317500Y862800D03*
X364500Y832800D03*
D19*
X139700Y889000D03*
X139700Y914400D03*
D12*
X127000Y127000D03*
X101600Y127000D03*
D13*
X76200Y76200D03*
X177800Y177800D03*
D12*
X381000Y127000D03*
X355600Y127000D03*
D13*
X330200Y76200D03*
X431800Y177800D03*
D12*
X635000Y127000D03*
X609600Y127000D03*
D13*
X584200Y76200D03*
X685800Y177800D03*
D12*
X889000Y127000D03*
X863600Y127000D03*
D13*
X838200Y76200D03*
X939800Y177800D03*
D12*
X1143000Y127000D03*
X1117600Y127000D03*
D13*
X1092200Y76200D03*
X1193800Y177800D03*
D12*
X1397000Y127000D03*
X1371600Y127000D03*
D13*
X1346200Y76200D03*
X1447800Y177800D03*
D14*
X114300Y254000D03*
X139700Y254000D03*
X368300Y254000D03*
X393700Y254000D03*
D15*
X647700Y254000D03*
X622300Y254000D03*
D14*
X876300Y254000D03*
X901700Y254000D03*
X1130300Y254000D03*
X1155700Y254000D03*
D15*
X1409700Y254000D03*
X1384300Y254000D03*
D20*
X628650Y900430D02*
X628650Y915670D01*
X654050Y915670D02*
X654050Y900430D01*
X844550Y900430D02*
X844550Y915670D01*
X869950Y915670D02*
X869950Y900430D01*
D21*
X175260Y508000D03*
X205740Y508000D03*
D22*
X434340Y508000D03*
X434340Y477520D03*
X938530Y506730D03*
X938530Y476250D03*
D21*
X1344930Y508000D03*
X1314450Y508000D03*
D22*
X584200Y506730D03*
X584200Y476250D03*
X1206500Y504190D03*
X1206500Y473710D03*
D21*
X175260Y254000D03*
X205740Y254000D03*
D22*
X431800Y254000D03*
X431800Y284480D03*
X584200Y254000D03*
X584200Y284480D03*
D21*
X943610Y254000D03*
X974090Y254000D03*
D22*
X1196340Y252730D03*
X1196340Y283210D03*
X1339850Y251460D03*
X1339850Y281940D03*
D23*
X1625600Y850900D03*
D24*
X1625600Y876300D03*
X1600200Y850900D03*
X1600200Y876300D03*
X1574800Y850900D03*
X1574800Y876300D03*
X1549400Y850900D03*
X1549400Y876300D03*
X1524000Y850900D03*
X1524000Y876300D03*
X1498600Y850900D03*
X1498600Y876300D03*
X1473200Y850900D03*
X1473200Y876300D03*
X1447800Y850900D03*
X1447800Y876300D03*
D20*
X1136650Y894080D02*
X1136650Y909320D01*
X1162050Y909320D02*
X1162050Y894080D01*
X1060450Y894080D02*
X1060450Y909320D01*
X1085850Y909320D02*
X1085850Y894080D01*
D12*
X3937000Y857250D03*
X3911600Y857250D03*
D13*
X3886200Y806450D03*
X3987800Y908050D03*
D19*
X1270000Y876300D03*
X1270000Y901700D03*
X952500Y876300D03*
X952500Y901700D03*
D11*
X2400300Y127000D03*
X2400300Y152400D03*
X2400300Y177800D03*
X2400300Y203200D03*
X2400300Y228600D03*
X2400300Y254000D03*
X2400300Y279400D03*
X2400300Y304800D03*
X2400300Y330200D03*
X2400300Y355600D03*
X2400300Y381000D03*
X2400300Y406400D03*
X2552700Y406400D03*
X2552700Y381000D03*
X2552700Y355600D03*
X2552700Y330200D03*
X2552700Y304800D03*
X2552700Y279400D03*
X2552700Y254000D03*
X2552700Y228600D03*
X2552700Y203200D03*
X2552700Y177800D03*
X2552700Y152400D03*
X2400300Y101600D03*
X2552700Y127000D03*
X2552700Y101600D03*
X2400300Y76200D03*
X2552700Y76200D03*
X2400300Y431800D03*
X2552700Y431800D03*
X2400300Y457200D03*
X2400300Y482600D03*
X2400300Y508000D03*
X2400300Y533400D03*
X2400300Y558800D03*
X2400300Y584200D03*
X2400300Y609600D03*
X2400300Y635000D03*
X2400300Y660400D03*
X2552700Y660400D03*
X2552700Y635000D03*
X2552700Y609600D03*
X2552700Y584200D03*
X2552700Y558800D03*
X2552700Y533400D03*
X2552700Y508000D03*
X2552700Y482600D03*
X2552700Y457200D03*
X2425700Y533400D03*
X2476500Y533400D03*
X2501900Y533400D03*
X2451100Y533400D03*
X2527300Y533400D03*
X2527300Y101600D03*
X2527300Y152400D03*
X2527300Y177800D03*
X2527300Y203200D03*
X2432050Y139700D03*
X2432050Y165100D03*
X2432050Y190500D03*
X2432050Y215900D03*
X2432050Y241300D03*
D12*
X2667000Y635000D03*
X2641600Y635000D03*
D13*
X2616200Y584200D03*
X2717800Y685800D03*
D12*
X3175000Y635000D03*
X3149600Y635000D03*
D13*
X3124200Y584200D03*
X3225800Y685800D03*
D12*
X2921000Y635000D03*
X2895600Y635000D03*
D13*
X2870200Y584200D03*
X2971800Y685800D03*
D12*
X3429000Y635000D03*
X3403600Y635000D03*
D13*
X3378200Y584200D03*
X3479800Y685800D03*
D12*
X3937000Y635000D03*
X3911600Y635000D03*
D13*
X3886200Y584200D03*
X3987800Y685800D03*
D12*
X3683000Y635000D03*
X3657600Y635000D03*
D13*
X3632200Y584200D03*
X3733800Y685800D03*
D12*
X2286000Y863600D03*
X2260600Y863600D03*
D13*
X2235200Y812800D03*
X2336800Y914400D03*
D12*
X2286000Y609600D03*
X2260600Y609600D03*
D13*
X2235200Y558800D03*
X2336800Y660400D03*
D12*
X2286000Y355600D03*
X2260600Y355600D03*
D13*
X2235200Y304800D03*
X2336800Y406400D03*
D12*
X2286000Y101600D03*
X2260600Y101600D03*
D13*
X2235200Y50800D03*
X2336800Y152400D03*
D14*
X2654300Y508000D03*
X2679700Y508000D03*
X3162300Y508000D03*
X3187700Y508000D03*
X2908300Y508000D03*
X2933700Y508000D03*
X3416300Y508000D03*
X3441700Y508000D03*
D15*
X3949700Y508000D03*
X3924300Y508000D03*
D14*
X3670300Y508000D03*
X3695700Y508000D03*
D12*
X2667000Y127000D03*
X2641600Y127000D03*
D13*
X2616200Y76200D03*
X2717800Y177800D03*
D12*
X2921000Y127000D03*
X2895600Y127000D03*
D13*
X2870200Y76200D03*
X2971800Y177800D03*
D12*
X3175000Y127000D03*
X3149600Y127000D03*
D13*
X3124200Y76200D03*
X3225800Y177800D03*
D12*
X3429000Y127000D03*
X3403600Y127000D03*
D13*
X3378200Y76200D03*
X3479800Y177800D03*
D12*
X3683000Y127000D03*
X3657600Y127000D03*
D13*
X3632200Y76200D03*
X3733800Y177800D03*
D12*
X3937000Y127000D03*
X3911600Y127000D03*
D13*
X3886200Y76200D03*
X3987800Y177800D03*
D14*
X2654300Y254000D03*
X2679700Y254000D03*
X2908300Y254000D03*
X2933700Y254000D03*
D15*
X3187700Y254000D03*
X3162300Y254000D03*
D14*
X3416300Y254000D03*
X3441700Y254000D03*
X3670300Y254000D03*
X3695700Y254000D03*
D15*
X3949700Y254000D03*
X3924300Y254000D03*
D20*
X3492500Y894080D02*
X3492500Y909320D01*
X3517900Y909320D02*
X3517900Y894080D01*
X3695700Y894080D02*
X3695700Y909320D01*
X3721100Y909320D02*
X3721100Y894080D01*
D21*
X2715260Y508000D03*
X2745740Y508000D03*
X3187700Y454660D03*
X3157220Y454660D03*
D22*
X2989580Y506730D03*
X2989580Y476250D03*
D21*
X3481070Y508000D03*
X3511550Y508000D03*
X3884930Y508000D03*
X3854450Y508000D03*
D22*
X3733800Y510540D03*
X3733800Y480060D03*
D21*
X2715260Y254000D03*
X2745740Y254000D03*
D22*
X2971800Y254000D03*
X2971800Y284480D03*
X3124200Y254000D03*
X3124200Y284480D03*
D21*
X3483610Y254000D03*
X3514090Y254000D03*
D22*
X3736340Y252730D03*
X3736340Y283210D03*
D21*
X3882390Y254000D03*
X3851910Y254000D03*
D23*
X2616200Y850900D03*
D24*
X2616200Y876300D03*
X2590800Y850900D03*
X2590800Y876300D03*
X2565400Y850900D03*
X2565400Y876300D03*
X2540000Y850900D03*
X2540000Y876300D03*
X2514600Y850900D03*
X2514600Y876300D03*
X2489200Y850900D03*
X2489200Y876300D03*
X2463800Y850900D03*
X2463800Y876300D03*
X2438400Y850900D03*
X2438400Y876300D03*
D20*
X3092450Y900430D02*
X3092450Y915670D01*
X3117850Y915670D02*
X3117850Y900430D01*
X3016250Y900430D02*
X3016250Y915670D01*
X3041650Y915670D02*
X3041650Y900430D01*
D19*
X3270250Y882650D03*
X3270250Y908050D03*
X2870200Y882650D03*
X2870200Y908050D03*
D20*
X1384300Y775970D02*
X1384300Y760730D01*
X1409700Y760730D02*
X1409700Y775970D01*
X2654300Y775970D02*
X2654300Y760730D01*
X2679700Y760730D02*
X2679700Y775970D01*
D25*
X1327150Y882650D03*
D26*
X1327150Y908050D03*
D25*
X1327150Y857250D03*
X1327150Y831850D03*
X2781300Y889000D03*
D26*
X2781300Y914400D03*
D25*
X2781300Y863600D03*
X2781300Y838200D03*
D12*
X2032000Y863600D03*
X2006600Y863600D03*
D13*
X1981200Y812800D03*
X2082800Y914400D03*
D12*
X2032000Y609600D03*
X2006600Y609600D03*
D13*
X1981200Y558800D03*
X2082800Y660400D03*
D12*
X2032000Y355600D03*
X2006600Y355600D03*
D13*
X1981200Y304800D03*
X2082800Y406400D03*
D12*
X2032000Y101600D03*
X2006600Y101600D03*
D13*
X1981200Y50800D03*
X2082800Y152400D03*
D27*
X768350Y856500D03*
X768350Y921500D03*
X3625850Y837450D03*
X3625850Y902450D03*
X552450Y856500D03*
X552450Y921500D03*
X3422650Y837450D03*
X3422650Y902450D03*
D28*
X419100Y819150D03*
X463550Y819150D03*
X3835400Y914400D03*
X3810000Y914400D03*
D29*
X381000Y457200D03*
X1183640Y473710D03*
D28*
X2336800Y762000D03*
X1733550Y762000D03*
X419100Y768350D03*
X3784600Y914400D03*
D29*
X228600Y254000D03*
X406400Y285750D03*
X508635Y285115D03*
X1028700Y254000D03*
X1181100Y304800D03*
X1339850Y304800D03*
X1092200Y431800D03*
X1130300Y431800D03*
X977900Y698500D03*
X1358900Y431800D03*
X228600Y508000D03*
X330200Y438150D03*
X368300Y438150D03*
X1778000Y730250D03*
X1778000Y793750D03*
X1159510Y850900D03*
X1159510Y800100D03*
X1435100Y406400D03*
X393700Y438150D03*
X679450Y406400D03*
X1244600Y406400D03*
X1061720Y850900D03*
X1062990Y777900D03*
X1155700Y444500D03*
X1060450Y868680D03*
X1028700Y869950D03*
X3530600Y508000D03*
X2876550Y279400D03*
X2946400Y285750D03*
X3048635Y285115D03*
X3536950Y254000D03*
X3721100Y304800D03*
X3829050Y254000D03*
X2876550Y469900D03*
X2679700Y692150D03*
X3018790Y877570D03*
X2990850Y877570D03*
X3695700Y438150D03*
X3670300Y438150D03*
X3619500Y508000D03*
X3721100Y323850D03*
X3638550Y222250D03*
X3115310Y857250D03*
X2762250Y765810D03*
X3115310Y803910D03*
X2863850Y425450D03*
X2762250Y685800D03*
X3017520Y857250D03*
X3017520Y782980D03*
X2994660Y668020D03*
X2933700Y450850D03*
X2578100Y520700D03*
X2590800Y495300D03*
X2965450Y539750D03*
X2508250Y381000D03*
X3625850Y412750D03*
X2908300Y438150D03*
X3327400Y476250D03*
X2305050Y723900D03*
X3613150Y234950D03*
X2948940Y803910D03*
X3594100Y419100D03*
D28*
X3860800Y914400D03*
D29*
X3136900Y857250D03*
X3067050Y739800D03*
X2948940Y740410D03*
X1390650Y723900D03*
X1327150Y800100D03*
X1473200Y736600D03*
X1377950Y831850D03*
X2800350Y685800D03*
X2612390Y508000D03*
X2626360Y530860D03*
X2781300Y685800D03*
D28*
X463550Y768350D03*
D29*
X294640Y478790D03*
X1078230Y508000D03*
X1189990Y850900D03*
X1136650Y717550D03*
X1085850Y717550D03*
X1212850Y755650D03*
X977900Y800100D03*
X1022350Y730250D03*
X1930400Y698500D03*
X1835150Y508000D03*
X1854200Y488950D03*
X2247900Y469900D03*
X2266950Y444500D03*
X1695450Y908050D03*
X1555750Y908050D03*
D28*
X1905000Y666750D03*
X1905000Y698500D03*
X1905000Y730250D03*
X2159000Y666750D03*
X2159000Y698500D03*
X2159000Y730250D03*
D30*
X2482850Y908050D03*
X2400300Y908050D03*
D29*
X355600Y311150D03*
X381000Y311150D03*
X412750Y323850D03*
X685800Y342900D03*
X1085850Y292100D03*
X463550Y476250D03*
X1143000Y457200D03*
X1060450Y444500D03*
X2921000Y431800D03*
X2965450Y438150D03*
X3473450Y317500D03*
X2946400Y311150D03*
X2870200Y254000D03*
X2584450Y190500D03*
X2882900Y311150D03*
X3759200Y444500D03*
X3683000Y450850D03*
M02*
