G04 EAGLE Gerber RS-274X export*
G75*
%MOMM*%
%FSLAX34Y34*%
%LPD*%
%INSoldermask Bottom*%
%IPPOS*%
%AMOC8*
5,1,8,0,0,1.08239X$1,22.5*%
G01*
%ADD10C,3.467200*%
%ADD11C,1.676400*%
%ADD12C,1.601200*%
%ADD13C,3.218200*%
%ADD14R,0.863600X2.235200*%
%ADD15P,2.034460X8X22.500000*%
%ADD16P,2.034460X8X202.500000*%
%ADD17P,1.951982X8X292.500000*%
%ADD18C,1.803400*%
%ADD19C,4.521200*%
%ADD20P,2.034460X8X112.500000*%
%ADD21R,1.703200X1.503200*%
%ADD22R,1.422400X2.438400*%
%ADD23R,3.803200X2.403200*%
%ADD24C,1.727200*%
%ADD25R,2.438400X1.422400*%
%ADD26R,2.403200X3.803200*%
%ADD27R,1.803200X2.203200*%
%ADD28R,2.603200X2.603200*%
%ADD29R,2.203200X1.803200*%
%ADD30R,2.403200X0.803200*%
%ADD31R,1.803200X1.503200*%
%ADD32R,1.503200X1.803200*%
%ADD33R,1.727200X1.727200*%
%ADD34P,1.869504X8X112.500000*%
%ADD35R,1.803400X1.371600*%
%ADD36R,1.828800X0.152400*%
%ADD37R,2.003200X1.603200*%
%ADD38R,1.603200X2.003200*%
%ADD39R,1.473200X2.743200*%
%ADD40P,2.144431X8X202.500000*%
%ADD41R,1.981200X1.981200*%
%ADD42C,2.743200*%
%ADD43C,1.703200*%
%ADD44C,0.959600*%
%ADD45P,1.038661X8X22.500000*%


D10*
X31750Y31750D03*
X31750Y920750D03*
X4032250Y31750D03*
X4032250Y749300D03*
D11*
X1511300Y127000D03*
X1511300Y152400D03*
X1511300Y177800D03*
X1511300Y203200D03*
X1511300Y228600D03*
X1511300Y254000D03*
X1511300Y279400D03*
X1511300Y304800D03*
X1511300Y330200D03*
X1511300Y355600D03*
X1511300Y381000D03*
X1511300Y406400D03*
X1663700Y406400D03*
X1663700Y381000D03*
X1663700Y355600D03*
X1663700Y330200D03*
X1663700Y304800D03*
X1663700Y279400D03*
X1663700Y254000D03*
X1663700Y228600D03*
X1663700Y203200D03*
X1663700Y177800D03*
X1663700Y152400D03*
X1511300Y101600D03*
X1663700Y127000D03*
X1663700Y101600D03*
X1511300Y76200D03*
X1663700Y76200D03*
X1511300Y431800D03*
X1663700Y431800D03*
X1511300Y457200D03*
X1511300Y482600D03*
X1511300Y508000D03*
X1511300Y533400D03*
X1511300Y558800D03*
X1511300Y584200D03*
X1511300Y609600D03*
X1511300Y635000D03*
X1511300Y660400D03*
X1663700Y660400D03*
X1663700Y635000D03*
X1663700Y609600D03*
X1663700Y584200D03*
X1663700Y558800D03*
X1663700Y533400D03*
X1663700Y508000D03*
X1663700Y482600D03*
X1663700Y457200D03*
X1536700Y533400D03*
X1587500Y533400D03*
X1612900Y533400D03*
X1562100Y533400D03*
X1638300Y533400D03*
X1638300Y101600D03*
X1638300Y152400D03*
X1638300Y177800D03*
X1638300Y203200D03*
X1543050Y139700D03*
X1543050Y165100D03*
X1543050Y190500D03*
X1543050Y215900D03*
X1543050Y241300D03*
D12*
X127000Y635000D03*
X101600Y635000D03*
D13*
X76200Y584200D03*
X177800Y685800D03*
D12*
X381000Y635000D03*
X355600Y635000D03*
D13*
X330200Y584200D03*
X431800Y685800D03*
D12*
X889000Y635000D03*
X863600Y635000D03*
D13*
X838200Y584200D03*
X939800Y685800D03*
D12*
X1397000Y635000D03*
X1371600Y635000D03*
D13*
X1346200Y584200D03*
X1447800Y685800D03*
D12*
X635000Y635000D03*
X609600Y635000D03*
D13*
X584200Y584200D03*
X685800Y685800D03*
D12*
X1143000Y635000D03*
X1117600Y635000D03*
D13*
X1092200Y584200D03*
X1193800Y685800D03*
D12*
X1778000Y863600D03*
X1752600Y863600D03*
D13*
X1727200Y812800D03*
X1828800Y914400D03*
D12*
X1778000Y609600D03*
X1752600Y609600D03*
D13*
X1727200Y558800D03*
X1828800Y660400D03*
D12*
X1778000Y355600D03*
X1752600Y355600D03*
D13*
X1727200Y304800D03*
X1828800Y406400D03*
D12*
X1778000Y101600D03*
X1752600Y101600D03*
D13*
X1727200Y50800D03*
X1828800Y152400D03*
D14*
X342900Y411734D03*
X342900Y350266D03*
X355600Y411734D03*
X368300Y411734D03*
X355600Y350266D03*
X368300Y350266D03*
X381000Y411734D03*
X381000Y350266D03*
X393700Y411734D03*
X406400Y411734D03*
X393700Y350266D03*
X406400Y350266D03*
X419100Y411734D03*
X419100Y350266D03*
D15*
X114300Y508000D03*
X139700Y508000D03*
X368300Y508000D03*
X393700Y508000D03*
X876300Y508000D03*
X901700Y508000D03*
D16*
X1409700Y508000D03*
X1384300Y508000D03*
X647700Y508000D03*
X622300Y508000D03*
D15*
X1130300Y508000D03*
X1155700Y508000D03*
D17*
X254000Y723900D03*
D18*
X254000Y749300D03*
D17*
X177800Y723900D03*
D18*
X177800Y749300D03*
D19*
X317500Y802800D03*
X317500Y862800D03*
X364500Y832800D03*
D20*
X139700Y889000D03*
X139700Y914400D03*
D21*
X139700Y835000D03*
X139700Y816000D03*
D22*
X239014Y800862D03*
X215900Y800862D03*
X192786Y800862D03*
D23*
X215900Y862840D03*
D12*
X127000Y127000D03*
X101600Y127000D03*
D13*
X76200Y76200D03*
X177800Y177800D03*
D12*
X381000Y127000D03*
X355600Y127000D03*
D13*
X330200Y76200D03*
X431800Y177800D03*
D12*
X635000Y127000D03*
X609600Y127000D03*
D13*
X584200Y76200D03*
X685800Y177800D03*
D12*
X889000Y127000D03*
X863600Y127000D03*
D13*
X838200Y76200D03*
X939800Y177800D03*
D12*
X1143000Y127000D03*
X1117600Y127000D03*
D13*
X1092200Y76200D03*
X1193800Y177800D03*
D12*
X1397000Y127000D03*
X1371600Y127000D03*
D13*
X1346200Y76200D03*
X1447800Y177800D03*
D14*
X1104900Y411734D03*
X1104900Y350266D03*
X1117600Y411734D03*
X1130300Y411734D03*
X1117600Y350266D03*
X1130300Y350266D03*
X1143000Y411734D03*
X1143000Y350266D03*
X1155700Y411734D03*
X1168400Y411734D03*
X1155700Y350266D03*
X1168400Y350266D03*
X1181100Y411734D03*
X1181100Y350266D03*
D15*
X114300Y254000D03*
X139700Y254000D03*
X368300Y254000D03*
X393700Y254000D03*
D16*
X647700Y254000D03*
X622300Y254000D03*
D15*
X876300Y254000D03*
X901700Y254000D03*
X1130300Y254000D03*
X1155700Y254000D03*
D16*
X1409700Y254000D03*
X1384300Y254000D03*
D24*
X628650Y900430D02*
X628650Y915670D01*
X654050Y915670D02*
X654050Y900430D01*
D25*
X597662Y751586D03*
X597662Y774700D03*
X597662Y797814D03*
D26*
X659640Y774700D03*
D27*
X693450Y723900D03*
X665450Y723900D03*
D28*
X625700Y850900D03*
X669700Y850900D03*
D29*
X546100Y784890D03*
X546100Y756890D03*
D24*
X844550Y900430D02*
X844550Y915670D01*
X869950Y915670D02*
X869950Y900430D01*
D25*
X813562Y751586D03*
X813562Y774700D03*
X813562Y797814D03*
D26*
X875540Y774700D03*
D27*
X934750Y723900D03*
X906750Y723900D03*
D28*
X841600Y850900D03*
X885600Y850900D03*
D29*
X768350Y778540D03*
X768350Y750540D03*
D30*
X1137250Y850900D03*
X1085250Y850900D03*
X1137250Y863600D03*
X1137250Y838200D03*
X1137250Y825500D03*
X1085250Y863600D03*
X1085250Y838200D03*
X1085250Y825500D03*
X1137250Y800100D03*
X1085250Y800100D03*
X1137250Y812800D03*
X1137250Y787400D03*
X1085250Y812800D03*
X1085250Y787400D03*
D31*
X1174750Y777900D03*
X1174750Y796900D03*
X1206500Y796900D03*
X1206500Y777900D03*
X1174750Y733450D03*
X1174750Y752450D03*
X1136650Y752450D03*
X1136650Y733450D03*
D32*
X1177950Y825500D03*
X1196950Y825500D03*
D33*
X1625600Y850900D03*
D34*
X1625600Y876300D03*
X1600200Y850900D03*
X1600200Y876300D03*
X1574800Y850900D03*
X1574800Y876300D03*
X1549400Y850900D03*
X1549400Y876300D03*
X1524000Y850900D03*
X1524000Y876300D03*
X1498600Y850900D03*
X1498600Y876300D03*
X1473200Y850900D03*
X1473200Y876300D03*
X1447800Y850900D03*
X1447800Y876300D03*
D24*
X1136650Y894080D02*
X1136650Y909320D01*
X1162050Y909320D02*
X1162050Y894080D01*
D31*
X1043940Y796900D03*
X1043940Y777900D03*
X1012190Y777900D03*
X1012190Y796900D03*
X1054100Y733450D03*
X1054100Y752450D03*
X1085850Y752450D03*
X1085850Y733450D03*
D32*
X1049630Y825500D03*
X1030630Y825500D03*
D24*
X1060450Y894080D02*
X1060450Y909320D01*
X1085850Y909320D02*
X1085850Y894080D01*
D12*
X3937000Y857250D03*
X3911600Y857250D03*
D13*
X3886200Y806450D03*
X3987800Y908050D03*
D35*
X127000Y750570D03*
X127000Y735330D03*
D36*
X127000Y742950D03*
D20*
X1270000Y876300D03*
X1270000Y901700D03*
D37*
X1206500Y882062D03*
X1206500Y908638D03*
D20*
X952500Y876300D03*
X952500Y901700D03*
D37*
X1003300Y869362D03*
X1003300Y895938D03*
D11*
X2400300Y127000D03*
X2400300Y152400D03*
X2400300Y177800D03*
X2400300Y203200D03*
X2400300Y228600D03*
X2400300Y254000D03*
X2400300Y279400D03*
X2400300Y304800D03*
X2400300Y330200D03*
X2400300Y355600D03*
X2400300Y381000D03*
X2400300Y406400D03*
X2552700Y406400D03*
X2552700Y381000D03*
X2552700Y355600D03*
X2552700Y330200D03*
X2552700Y304800D03*
X2552700Y279400D03*
X2552700Y254000D03*
X2552700Y228600D03*
X2552700Y203200D03*
X2552700Y177800D03*
X2552700Y152400D03*
X2400300Y101600D03*
X2552700Y127000D03*
X2552700Y101600D03*
X2400300Y76200D03*
X2552700Y76200D03*
X2400300Y431800D03*
X2552700Y431800D03*
X2400300Y457200D03*
X2400300Y482600D03*
X2400300Y508000D03*
X2400300Y533400D03*
X2400300Y558800D03*
X2400300Y584200D03*
X2400300Y609600D03*
X2400300Y635000D03*
X2400300Y660400D03*
X2552700Y660400D03*
X2552700Y635000D03*
X2552700Y609600D03*
X2552700Y584200D03*
X2552700Y558800D03*
X2552700Y533400D03*
X2552700Y508000D03*
X2552700Y482600D03*
X2552700Y457200D03*
X2425700Y533400D03*
X2476500Y533400D03*
X2501900Y533400D03*
X2451100Y533400D03*
X2527300Y533400D03*
X2527300Y101600D03*
X2527300Y152400D03*
X2527300Y177800D03*
X2527300Y203200D03*
X2432050Y139700D03*
X2432050Y165100D03*
X2432050Y190500D03*
X2432050Y215900D03*
X2432050Y241300D03*
D12*
X2667000Y635000D03*
X2641600Y635000D03*
D13*
X2616200Y584200D03*
X2717800Y685800D03*
D12*
X3175000Y635000D03*
X3149600Y635000D03*
D13*
X3124200Y584200D03*
X3225800Y685800D03*
D12*
X2921000Y635000D03*
X2895600Y635000D03*
D13*
X2870200Y584200D03*
X2971800Y685800D03*
D12*
X3429000Y635000D03*
X3403600Y635000D03*
D13*
X3378200Y584200D03*
X3479800Y685800D03*
D12*
X3937000Y635000D03*
X3911600Y635000D03*
D13*
X3886200Y584200D03*
X3987800Y685800D03*
D12*
X3683000Y635000D03*
X3657600Y635000D03*
D13*
X3632200Y584200D03*
X3733800Y685800D03*
D12*
X2286000Y863600D03*
X2260600Y863600D03*
D13*
X2235200Y812800D03*
X2336800Y914400D03*
D12*
X2286000Y609600D03*
X2260600Y609600D03*
D13*
X2235200Y558800D03*
X2336800Y660400D03*
D12*
X2286000Y355600D03*
X2260600Y355600D03*
D13*
X2235200Y304800D03*
X2336800Y406400D03*
D12*
X2286000Y101600D03*
X2260600Y101600D03*
D13*
X2235200Y50800D03*
X2336800Y152400D03*
D14*
X2882900Y411734D03*
X2882900Y350266D03*
X2895600Y411734D03*
X2908300Y411734D03*
X2895600Y350266D03*
X2908300Y350266D03*
X2921000Y411734D03*
X2921000Y350266D03*
X2933700Y411734D03*
X2946400Y411734D03*
X2933700Y350266D03*
X2946400Y350266D03*
X2959100Y411734D03*
X2959100Y350266D03*
D15*
X2654300Y508000D03*
X2679700Y508000D03*
X3162300Y508000D03*
X3187700Y508000D03*
X2908300Y508000D03*
X2933700Y508000D03*
X3416300Y508000D03*
X3441700Y508000D03*
D16*
X3949700Y508000D03*
X3924300Y508000D03*
D15*
X3670300Y508000D03*
X3695700Y508000D03*
D12*
X2667000Y127000D03*
X2641600Y127000D03*
D13*
X2616200Y76200D03*
X2717800Y177800D03*
D12*
X2921000Y127000D03*
X2895600Y127000D03*
D13*
X2870200Y76200D03*
X2971800Y177800D03*
D12*
X3175000Y127000D03*
X3149600Y127000D03*
D13*
X3124200Y76200D03*
X3225800Y177800D03*
D12*
X3429000Y127000D03*
X3403600Y127000D03*
D13*
X3378200Y76200D03*
X3479800Y177800D03*
D12*
X3683000Y127000D03*
X3657600Y127000D03*
D13*
X3632200Y76200D03*
X3733800Y177800D03*
D12*
X3937000Y127000D03*
X3911600Y127000D03*
D13*
X3886200Y76200D03*
X3987800Y177800D03*
D14*
X3644900Y411734D03*
X3644900Y350266D03*
X3657600Y411734D03*
X3670300Y411734D03*
X3657600Y350266D03*
X3670300Y350266D03*
X3683000Y411734D03*
X3683000Y350266D03*
X3695700Y411734D03*
X3708400Y411734D03*
X3695700Y350266D03*
X3708400Y350266D03*
X3721100Y411734D03*
X3721100Y350266D03*
D15*
X2654300Y254000D03*
X2679700Y254000D03*
X2908300Y254000D03*
X2933700Y254000D03*
D16*
X3187700Y254000D03*
X3162300Y254000D03*
D15*
X3416300Y254000D03*
X3441700Y254000D03*
X3670300Y254000D03*
X3695700Y254000D03*
D16*
X3949700Y254000D03*
X3924300Y254000D03*
D24*
X3492500Y894080D02*
X3492500Y909320D01*
X3517900Y909320D02*
X3517900Y894080D01*
D25*
X3461512Y745236D03*
X3461512Y768350D03*
X3461512Y791464D03*
D26*
X3523490Y768350D03*
D27*
X3408650Y711200D03*
X3436650Y711200D03*
D28*
X3489550Y844550D03*
X3533550Y844550D03*
D29*
X3409950Y784890D03*
X3409950Y756890D03*
D24*
X3695700Y894080D02*
X3695700Y909320D01*
X3721100Y909320D02*
X3721100Y894080D01*
D25*
X3664712Y745236D03*
X3664712Y768350D03*
X3664712Y791464D03*
D26*
X3726690Y768350D03*
D27*
X3611850Y711200D03*
X3639850Y711200D03*
D28*
X3692750Y844550D03*
X3736750Y844550D03*
D29*
X3613150Y782350D03*
X3613150Y754350D03*
D30*
X3093050Y857250D03*
X3041050Y857250D03*
X3093050Y869950D03*
X3093050Y844550D03*
X3093050Y831850D03*
X3041050Y869950D03*
X3041050Y844550D03*
X3041050Y831850D03*
X3093050Y806450D03*
X3041050Y806450D03*
X3093050Y819150D03*
X3093050Y793750D03*
X3041050Y819150D03*
X3041050Y793750D03*
D31*
X3136900Y784250D03*
X3136900Y803250D03*
X3168650Y784250D03*
X3168650Y803250D03*
X3136900Y739800D03*
X3136900Y758800D03*
X3092450Y758800D03*
X3092450Y739800D03*
D32*
X3133750Y831850D03*
X3152750Y831850D03*
D33*
X2616200Y850900D03*
D34*
X2616200Y876300D03*
X2590800Y850900D03*
X2590800Y876300D03*
X2565400Y850900D03*
X2565400Y876300D03*
X2540000Y850900D03*
X2540000Y876300D03*
X2514600Y850900D03*
X2514600Y876300D03*
X2489200Y850900D03*
X2489200Y876300D03*
X2463800Y850900D03*
X2463800Y876300D03*
X2438400Y850900D03*
X2438400Y876300D03*
D24*
X3092450Y900430D02*
X3092450Y915670D01*
X3117850Y915670D02*
X3117850Y900430D01*
D31*
X2999740Y803250D03*
X2999740Y784250D03*
X2967990Y784250D03*
X2967990Y803250D03*
X3009900Y739800D03*
X3009900Y758800D03*
X3041650Y758800D03*
X3041650Y739800D03*
D32*
X3005430Y831850D03*
X2986430Y831850D03*
D24*
X3016250Y900430D02*
X3016250Y915670D01*
X3041650Y915670D02*
X3041650Y900430D01*
D20*
X3270250Y882650D03*
X3270250Y908050D03*
D38*
X3174412Y908050D03*
X3200988Y908050D03*
D20*
X2870200Y882650D03*
X2870200Y908050D03*
D38*
X2959688Y908050D03*
X2933112Y908050D03*
D24*
X1384300Y775970D02*
X1384300Y760730D01*
X1409700Y760730D02*
X1409700Y775970D01*
X2654300Y775970D02*
X2654300Y760730D01*
X2679700Y760730D02*
X2679700Y775970D01*
D39*
X2082800Y69850D03*
X2057400Y69850D03*
D40*
X1327150Y882650D03*
D41*
X1327150Y908050D03*
D40*
X1327150Y857250D03*
X1327150Y831850D03*
X2781300Y889000D03*
D41*
X2781300Y914400D03*
D40*
X2781300Y863600D03*
X2781300Y838200D03*
D35*
X1708150Y116840D03*
X1708150Y101600D03*
X1708150Y86360D03*
X2717800Y116840D03*
X2717800Y101600D03*
X2717800Y86360D03*
D12*
X2032000Y863600D03*
X2006600Y863600D03*
D13*
X1981200Y812800D03*
X2082800Y914400D03*
D12*
X2032000Y609600D03*
X2006600Y609600D03*
D13*
X1981200Y558800D03*
X2082800Y660400D03*
D12*
X2032000Y355600D03*
X2006600Y355600D03*
D13*
X1981200Y304800D03*
X2082800Y406400D03*
D12*
X2032000Y101600D03*
X2006600Y101600D03*
D13*
X1981200Y50800D03*
X2082800Y152400D03*
D42*
X768350Y856500D03*
X768350Y921500D03*
X3625850Y837450D03*
X3625850Y902450D03*
X552450Y856500D03*
X552450Y921500D03*
X3422650Y837450D03*
X3422650Y902450D03*
D31*
X1073150Y371000D03*
X1073150Y391000D03*
D32*
X314800Y349250D03*
X294800Y349250D03*
X1221900Y850900D03*
X1241900Y850900D03*
D31*
X2851150Y352900D03*
X2851150Y332900D03*
D32*
X3616800Y349250D03*
X3596800Y349250D03*
X3152300Y857250D03*
X3172300Y857250D03*
D43*
X419100Y819150D03*
X463550Y819150D03*
X3835400Y914400D03*
X3810000Y914400D03*
D44*
X381000Y457200D03*
X1183640Y473710D03*
D43*
X2336800Y762000D03*
X1733550Y762000D03*
X419100Y768350D03*
X3784600Y914400D03*
D44*
X228600Y254000D03*
X406400Y285750D03*
X508635Y285115D03*
X1028700Y254000D03*
X1181100Y304800D03*
X1339850Y304800D03*
X1092200Y431800D03*
X1130300Y431800D03*
X977900Y698500D03*
X1358900Y431800D03*
X228600Y508000D03*
X330200Y438150D03*
X368300Y438150D03*
X1778000Y730250D03*
X1778000Y793750D03*
X1159510Y850900D03*
X1159510Y800100D03*
X1435100Y406400D03*
X393700Y438150D03*
X679450Y406400D03*
X1244600Y406400D03*
X1061720Y850900D03*
X1062990Y777900D03*
X1155700Y444500D03*
X1060450Y868680D03*
X1028700Y869950D03*
X3530600Y508000D03*
X2876550Y279400D03*
X2946400Y285750D03*
X3048635Y285115D03*
X3536950Y254000D03*
X3721100Y304800D03*
X3829050Y254000D03*
X2876550Y469900D03*
X2679700Y692150D03*
X3018790Y877570D03*
X2990850Y877570D03*
X3695700Y438150D03*
X3670300Y438150D03*
X3619500Y508000D03*
X3721100Y323850D03*
X3638550Y222250D03*
X3115310Y857250D03*
X2762250Y765810D03*
X3115310Y803910D03*
X2863850Y425450D03*
X2762250Y685800D03*
X3017520Y857250D03*
X3017520Y782980D03*
X2994660Y668020D03*
X2933700Y450850D03*
X2578100Y520700D03*
X2590800Y495300D03*
X2965450Y539750D03*
X2508250Y381000D03*
X3625850Y412750D03*
X2908300Y438150D03*
X3327400Y476250D03*
X2305050Y723900D03*
X3613150Y234950D03*
X2948940Y803910D03*
X3594100Y419100D03*
D43*
X3860800Y914400D03*
D44*
X3136900Y857250D03*
X3067050Y739800D03*
X2948940Y740410D03*
X1390650Y723900D03*
X1327150Y800100D03*
X1473200Y736600D03*
X1377950Y831850D03*
X2800350Y685800D03*
X2612390Y508000D03*
X2626360Y530860D03*
X2781300Y685800D03*
D43*
X463550Y768350D03*
D44*
X294640Y478790D03*
X1078230Y508000D03*
X1189990Y850900D03*
X1136650Y717550D03*
X1085850Y717550D03*
X1212850Y755650D03*
X977900Y800100D03*
X1022350Y730250D03*
X1930400Y698500D03*
X1835150Y508000D03*
X1854200Y488950D03*
X2247900Y469900D03*
X2266950Y444500D03*
X1695450Y908050D03*
X1555750Y908050D03*
D43*
X1905000Y666750D03*
X1905000Y698500D03*
X1905000Y730250D03*
X2159000Y666750D03*
X2159000Y698500D03*
X2159000Y730250D03*
D45*
X2482850Y908050D03*
X2400300Y908050D03*
D44*
X355600Y311150D03*
X381000Y311150D03*
X412750Y323850D03*
X685800Y342900D03*
X1085850Y292100D03*
X463550Y476250D03*
X1143000Y457200D03*
X1060450Y444500D03*
X2921000Y431800D03*
X2965450Y438150D03*
X3473450Y317500D03*
X2946400Y311150D03*
X2870200Y254000D03*
X2584450Y190500D03*
X2882900Y311150D03*
X3759200Y444500D03*
X3683000Y450850D03*
M02*
