G04 EAGLE Gerber RS-274X export*
G75*
%MOMM*%
%FSLAX34Y34*%
%LPD*%
%INSolderpaste Top*%
%IPPOS*%
%AMOC8*
5,1,8,0,0,1.08239X$1,22.5*%
G01*
%ADD10R,1.300000X1.600000*%
%ADD11R,1.600000X1.300000*%


D10*
X175260Y508000D03*
X205740Y508000D03*
D11*
X434340Y508000D03*
X434340Y477520D03*
X938530Y506730D03*
X938530Y476250D03*
D10*
X1344930Y508000D03*
X1314450Y508000D03*
D11*
X584200Y506730D03*
X584200Y476250D03*
X1206500Y504190D03*
X1206500Y473710D03*
D10*
X175260Y254000D03*
X205740Y254000D03*
D11*
X431800Y254000D03*
X431800Y284480D03*
X584200Y254000D03*
X584200Y284480D03*
D10*
X943610Y254000D03*
X974090Y254000D03*
D11*
X1196340Y252730D03*
X1196340Y283210D03*
X1339850Y251460D03*
X1339850Y281940D03*
D10*
X2715260Y508000D03*
X2745740Y508000D03*
X3187700Y454660D03*
X3157220Y454660D03*
D11*
X2989580Y506730D03*
X2989580Y476250D03*
D10*
X3481070Y508000D03*
X3511550Y508000D03*
X3884930Y508000D03*
X3854450Y508000D03*
D11*
X3733800Y510540D03*
X3733800Y480060D03*
D10*
X2715260Y254000D03*
X2745740Y254000D03*
D11*
X2971800Y254000D03*
X2971800Y284480D03*
X3124200Y254000D03*
X3124200Y284480D03*
D10*
X3483610Y254000D03*
X3514090Y254000D03*
D11*
X3736340Y252730D03*
X3736340Y283210D03*
D10*
X3882390Y254000D03*
X3851910Y254000D03*
M02*
